# xmcd
#
# Track frame offsets: 
#        150
#        10180
#        21650
#        31397
#        42187
#        54105
#        65122
#        75970
#        87182
#        96106
#        110341
#        122011
#        131821
#        142484
#        153289
#        163899
#        173003
#        182363
#        189286
#        199516
#        210424
#        221382
#
# Disc length: 3065 seconds
#
# Revision: 0
# Processed by: cddbd v1.5.2PL0 Copyright (c) Steve Scherf et al.
# Submitted via: ExactAudioCopyFreeDBPlugin 1.0
#
DISCID=250bf716
DTITLE=The Buckaroos - Play Buck And Merle
DYEAR=1971
DGENRE=Country
TTITLE0=I've Got A Tiger By The Tail
TTITLE1=Together Again
TTITLE2=Before You Go
TTITLE3=Second Fiddle
TTITLE4=Don't Let Her Know
TTITLE5=My Heart Skips A Beat
TTITLE6=Act Naturally
TTITLE7=Only You (Can Break My Heart)
TTITLE8=Love's Gonna Live Here
TTITLE9=Under Your Spell Again
TTITLE10=Foolin' Around
TTITLE11=I Don't Care (Just As Long As You Love Me)
TTITLE12=Daddy Frank (The Guitar Man)
TTITLE13=Today I Started Loving You Again
TTITLE14=The Fightin' Side Of Me
TTITLE15=Silver Wings
TTITLE16=Okie From Muskogee
TTITLE17=The Legend Of Bonnie And Clyde
TTITLE18=Hungry Eyes
TTITLE19=Swinging Doors
TTITLE20=I Take A Lot Of Pride In What I Am
TTITLE21=Mama Tried
EXTD=
EXTT0=
EXTT1=
EXTT2=
EXTT3=
EXTT4=
EXTT5=
EXTT6=
EXTT7=
EXTT8=
EXTT9=
EXTT10=
EXTT11=
EXTT12=
EXTT13=
EXTT14=
EXTT15=
EXTT16=
EXTT17=
EXTT18=
EXTT19=
EXTT20=
EXTT21=
PLAYORDER=
